<svg xmlns="http://www.w3.org/2000/svg" width="33" height="33" fill="none"><path fill="#706458" fill-opacity=".9" fill-rule="evenodd" d="M29.3.5H3.7A3.2 3.2 0 0 0 .5 3.7v25.6a3.2 3.2 0 0 0 3.2 3.2h25.6a3.2 3.2 0 0 0 3.2-3.2V3.7A3.2 3.2 0 0 0 29.3.5ZM6.9 7.802a2.505 2.505 0 0 0 5.01 0 2.506 2.506 0 0 0-5.01 0ZM7.3 26.1h4.3V12.282H7.3V26.1Zm20.4 0h-4.296v-6.72c0-1.603-.029-3.664-2.233-3.664-2.237 0-2.58 1.746-2.58 3.548V26.1h-4.296V12.282h4.123v1.888h.059c.574-1.086 1.975-2.232 4.066-2.232 4.353 0 5.157 2.862 5.157 6.583V26.1Z" clip-rule="evenodd"/></svg>